<svg xmlns="http://www.w3.org/2000/svg" width="399.40045166015625" height="399.9610900878906" viewBox="-69.42608642578125 -58.87813949584961 399.40045166015625 399.9610900878906"><title>Neo4j Graph Visualization</title><desc>Created using Neo4j (http://www.neo4j.com/)</desc><g class="layer relationships"><g class="relationship" transform="translate(94.61652823737344 29.898445210909216) rotate(431.9402125950292)"><path class="outline" fill="#A5ABB6" stroke="none" d="M 25 0.5 L 30.71706973728594 0.5 L 30.71706973728594 -0.5 L 25 -0.5 Z M 84.13113223728594 0.5 L 89.84820197457188 0.5 L 89.84820197457188 3.5 L 96.84820197457188 0 L 89.84820197457188 -3.5 L 89.84820197457188 -0.5 L 84.13113223728594 -0.5 Z"/><text text-anchor="middle" pointer-events="none" font-size="8px" fill="#000000" x="57.42410098728594" y="3" font-family="sans-serif">SUBCAT_OF</text></g><g class="relationship" transform="translate(194.85234598471564 237.99991359710415) rotate(235.9001953785044)"><path class="outline" fill="#A5ABB6" stroke="none" d="M 25 0.5 L 25.499104355190333 0.5 L 25.499104355190333 -0.5 L 25 -0.5 Z M 78.91316685519033 0.5 L 79.41227121038067 0.5 L 79.41227121038067 3.5 L 86.41227121038067 0 L 79.41227121038067 -3.5 L 79.41227121038067 -0.5 L 78.91316685519033 -0.5 Z"/><text text-anchor="middle" pointer-events="none" font-size="8px" fill="#000000" x="52.20613560519033" y="3" transform="rotate(180 52.20613560519033 0)" font-family="sans-serif">SUBCAT_OF</text></g><g class="relationship" transform="translate(194.85234598471564 237.99991359710415) rotate(344.1836816364561)"><path class="outline" fill="#A5ABB6" stroke="none" d="M 25 0.5 L 26.22351606889528 0.5 L 26.22351606889528 -0.5 L 25 -0.5 Z M 67.78601606889528 0.5 L 69.00953213779056 0.5 L 69.00953213779056 3.5 L 76.00953213779056 0 L 69.00953213779056 -3.5 L 69.00953213779056 -0.5 L 67.78601606889528 -0.5 Z"/><text text-anchor="middle" pointer-events="none" font-size="8px" fill="#000000" x="47.00476606889528" y="3" font-family="sans-serif">SUBCA…</text></g><g class="relationship" transform="translate(54.74190777457825 300.1348877380172) rotate(296.6993987448809)"><path class="outline" fill="#A5ABB6" stroke="none" d="M 25 0.5 L 56.20185585335767 0.5 L 56.20185585335767 -0.5 L 25 -0.5 Z M 109.61591835335767 0.5 L 140.81777420671534 0.5 L 140.81777420671534 3.5 L 147.81777420671534 0 L 140.81777420671534 -3.5 L 140.81777420671534 -0.5 L 109.61591835335767 -0.5 Z"/><text text-anchor="middle" pointer-events="none" font-size="8px" fill="#000000" x="82.90888710335767" y="3" font-family="sans-serif">SUBCAT_OF</text></g><g class="relationship" transform="translate(292.03769830551335 210.4693328371971) rotate(202.06910687347852)"><path class="outline" fill="#A5ABB6" stroke="none" d="M 25 0.5 L 55.92747861204039 0.5 L 55.92747861204039 -0.5 L 25 -0.5 Z M 109.34154111204039 0.5 L 140.26901972408078 0.5 L 140.26901972408078 3.5 L 147.26901972408078 0 L 140.26901972408078 -3.5 L 140.26901972408078 -0.5 L 109.34154111204039 -0.5 Z"/><text text-anchor="middle" pointer-events="none" font-size="8px" fill="#000000" x="82.63450986204039" y="3" transform="rotate(180 82.63450986204039 0)" font-family="sans-serif">SUBCAT_OF</text></g><g class="relationship" transform="translate(252.29740572295023 255.25624672432184) rotate(222.40590563348394)"><path class="outline" fill="#A5ABB6" stroke="none" d="M 25 0.5 L 50.98819437274972 0.5 L 50.98819437274972 -0.5 L 25 -0.5 Z M 104.40225687274972 0.5 L 130.39045124549943 0.5 L 130.39045124549943 3.5 L 137.39045124549943 0 L 130.39045124549943 -3.5 L 130.39045124549943 -0.5 L 104.40225687274972 -0.5 Z"/><text text-anchor="middle" pointer-events="none" font-size="8px" fill="#000000" x="77.69522562274972" y="3" transform="rotate(180 77.69522562274972 0)" font-family="sans-serif">SUBCAT_OF</text></g><g class="relationship" transform="translate(7.728680259761216 258.0893350618072) rotate(317.9747231193129)"><path class="outline" fill="#A5ABB6" stroke="none" d="M 25 0.5 L 53.70088492702955 0.5 L 53.70088492702955 -0.5 L 25 -0.5 Z M 107.11494742702955 0.5 L 135.8158323540591 0.5 L 135.8158323540591 3.5 L 142.8158323540591 0 L 135.8158323540591 -3.5 L 135.8158323540591 -0.5 L 107.11494742702955 -0.5 Z"/><text text-anchor="middle" pointer-events="none" font-size="8px" fill="#000000" x="80.40791617702955" y="3" font-family="sans-serif">SUBCAT_OF</text></g><g class="relationship" transform="translate(184.17550951479066 40.9052888270938) rotate(476.28707782528204)"><path class="outline" fill="#A5ABB6" stroke="none" d="M 25 0.5 L 28.258241448149754 0.5 L 28.258241448149754 -0.5 L 25 -0.5 Z M 81.67230394814976 0.5 L 84.93054539629951 0.5 L 84.93054539629951 3.5 L 91.93054539629951 0 L 84.93054539629951 -3.5 L 84.93054539629951 -0.5 L 81.67230394814976 -0.5 Z"/><text text-anchor="middle" pointer-events="none" font-size="8px" fill="#000000" x="54.965272698149754" y="3" transform="rotate(180 54.965272698149754 0)" font-family="sans-serif">SUBCAT_OF</text></g><g class="relationship" transform="translate(267.4793682716653 36.18110541654852) rotate(500.9565355257854)"><path class="outline" fill="#A5ABB6" stroke="none" d="M 25 0.5 L 56.7598019808041 0.5 L 56.7598019808041 -0.5 L 25 -0.5 Z M 110.1738644808041 0.5 L 141.9336664616082 0.5 L 141.9336664616082 3.5 L 148.9336664616082 0 L 141.9336664616082 -3.5 L 141.9336664616082 -0.5 L 110.1738644808041 -0.5 Z"/><text text-anchor="middle" pointer-events="none" font-size="8px" fill="#000000" x="83.4668332308041" y="3" transform="rotate(180 83.4668332308041 0)" font-family="sans-serif">SUBCAT_OF</text></g><g class="relationship" transform="translate(158.7376102563892 -20.835777427457664) rotate(458.9877286627704)"><path class="outline" fill="#A5ABB6" stroke="none" d="M 25 0.5 L 54.118024491405066 0.5 L 54.118024491405066 -0.5 L 25 -0.5 Z M 107.53208699140507 0.5 L 136.65011148281013 0.5 L 136.65011148281013 3.5 L 143.65011148281013 0 L 136.65011148281013 -3.5 L 136.65011148281013 -0.5 L 107.53208699140507 -0.5 Z"/><text text-anchor="middle" pointer-events="none" font-size="8px" fill="#000000" x="80.82505574140507" y="3" transform="rotate(180 80.82505574140507 0)" font-family="sans-serif">SUBCAT_OF</text></g><g class="relationship" transform="translate(99.43219167672876 -29.87814005943987) rotate(439.3711026082629)"><path class="outline" fill="#A5ABB6" stroke="none" d="M 25 0.5 L 59.136768736853625 0.5 L 59.136768736853625 -0.5 L 25 -0.5 Z M 112.55083123685363 0.5 L 146.68759997370725 0.5 L 146.68759997370725 3.5 L 153.68759997370725 0 L 146.68759997370725 -3.5 L 146.68759997370725 -0.5 L 112.55083123685363 -0.5 Z"/><text text-anchor="middle" pointer-events="none" font-size="8px" fill="#000000" x="85.84379998685363" y="3" font-family="sans-serif">SUBCAT_OF</text></g><g class="relationship" transform="translate(135.3366412055577 312.082903998447) rotate(268.9853373487015)"><path class="outline" fill="#A5ABB6" stroke="none" d="M 25 0.5 L 52.97565510391284 0.5 L 52.97565510391284 -0.5 L 25 -0.5 Z M 106.38971760391284 0.5 L 134.36537270782568 0.5 L 134.36537270782568 3.5 L 141.36537270782568 0 L 134.36537270782568 -3.5 L 134.36537270782568 -0.5 L 106.38971760391284 -0.5 Z"/><text text-anchor="middle" pointer-events="none" font-size="8px" fill="#000000" x="79.68268635391284" y="3" transform="rotate(180 79.68268635391284 0)" font-family="sans-serif">SUBCAT_OF</text></g><g class="relationship" transform="translate(135.3366412055577 312.082903998447) rotate(308.7771874939088)"><path class="outline" fill="#A5ABB6" stroke="none" d="M 25 0.5 L 25.90094972916387 0.5 L 25.90094972916387 -0.5 L 25 -0.5 Z M 62.12751222916387 0.5 L 63.02846195832774 0.5 L 63.02846195832774 3.5 L 70.02846195832774 0 L 63.02846195832774 -3.5 L 63.02846195832774 -0.5 L 62.12751222916387 -0.5 Z"/><text text-anchor="middle" pointer-events="none" font-size="8px" fill="#000000" x="44.01423097916387" y="3" font-family="sans-serif">SUBC…</text></g><g class="relationship" transform="translate(220.8502489371078 -6.557587169400862) rotate(480.1488952715589)"><path class="outline" fill="#A5ABB6" stroke="none" d="M 25 0.5 L 57.85653548973636 0.5 L 57.85653548973636 -0.5 L 25 -0.5 Z M 111.27059798973636 0.5 L 144.12713347947272 0.5 L 144.12713347947272 3.5 L 151.12713347947272 0 L 144.12713347947272 -3.5 L 144.12713347947272 -0.5 L 111.27059798973636 -0.5 Z"/><text text-anchor="middle" pointer-events="none" font-size="8px" fill="#000000" x="84.56356673973636" y="3" transform="rotate(180 84.56356673973636 0)" font-family="sans-serif">SUBCAT_OF</text></g><g class="relationship" transform="translate(208.6301400430723 296.35310326606566) rotate(314.1619984869213)"><path class="outline" fill="#A5ABB6" stroke="none" d="M 25 0.5 L 29.652894406446272 0.5 L 29.652894406446272 -0.5 L 25 -0.5 Z M 83.06695690644628 0.5 L 87.71985131289254 0.5 L 87.71985131289254 3.5 L 94.71985131289254 0 L 87.71985131289254 -3.5 L 87.71985131289254 -0.5 L 83.06695690644628 -0.5 Z"/><text text-anchor="middle" pointer-events="none" font-size="8px" fill="#000000" x="56.35992565644627" y="3" font-family="sans-serif">SUBCAT_OF</text></g><g class="relationship" transform="translate(208.6301400430723 296.35310326606566) rotate(243.15115769547282)"><path class="outline" fill="#A5ABB6" stroke="none" d="M 25 0.5 L 54.19629360948164 0.5 L 54.19629360948164 -0.5 L 25 -0.5 Z M 107.61035610948164 0.5 L 136.80664971896329 0.5 L 136.80664971896329 3.5 L 143.80664971896329 0 L 136.80664971896329 -3.5 L 136.80664971896329 -0.5 L 107.61035610948164 -0.5 Z"/><text text-anchor="middle" pointer-events="none" font-size="8px" fill="#000000" x="80.90332485948164" y="3" transform="rotate(180 80.90332485948164 0)" font-family="sans-serif">SUBCAT_OF</text></g><g class="relationship" transform="translate(-29.924206538319027 61.66131802416491) rotate(387.3850560902088)"><path class="outline" fill="#A5ABB6" stroke="none" d="M 25 0.5 L 61.193089888877466 0.5 L 61.193089888877466 -0.5 L 25 -0.5 Z M 114.60715238887747 0.5 L 150.80024227775493 0.5 L 150.80024227775493 3.5 L 157.80024227775493 0 L 150.80024227775493 -3.5 L 150.80024227775493 -0.5 L 114.60715238887747 -0.5 Z"/><text text-anchor="middle" pointer-events="none" font-size="8px" fill="#000000" x="87.90012113887747" y="3" font-family="sans-serif">SUBCAT_OF</text></g><g class="relationship" transform="translate(30.964570122464735 -9.58492553863741) rotate(490.5180074088364)"><path class="outline" fill="#A5ABB6" stroke="none" d="M 25 0.5 L 25.24680396400958 0.5 L 25.24680396400958 -0.5 L 25 -0.5 Z M 61.47336646400958 0.5 L 61.72017042801916 0.5 L 61.72017042801916 3.5 L 68.72017042801916 0 L 61.72017042801916 -3.5 L 61.72017042801916 -0.5 L 61.47336646400958 -0.5 Z"/><text text-anchor="middle" pointer-events="none" font-size="8px" fill="#000000" x="43.36008521400958" y="3" transform="rotate(180 43.36008521400958 0)" font-family="sans-serif">SUBC…</text></g><g class="relationship" transform="translate(30.964570122464735 -9.58492553863741) rotate(416.85637161737725)"><path class="outline" fill="#A5ABB6" stroke="none" d="M 25 0.5 L 62.54828577493204 0.5 L 62.54828577493204 -0.5 L 25 -0.5 Z M 115.96234827493204 0.5 L 153.51063404986408 0.5 L 153.51063404986408 3.5 L 160.51063404986408 0 L 153.51063404986408 -3.5 L 153.51063404986408 -0.5 L 115.96234827493204 -0.5 Z"/><text text-anchor="middle" pointer-events="none" font-size="8px" fill="#000000" x="89.25531702493204" y="3" font-family="sans-serif">SUBCAT_OF</text></g><g class="relationship" transform="translate(15.754393357263476 113.00916799895691) rotate(375.67700281955695)"><path class="outline" fill="#A5ABB6" stroke="none" d="M 25 0.5 L 30.36430724229335 0.5 L 30.36430724229335 -0.5 L 25 -0.5 Z M 83.77836974229335 0.5 L 89.1426769845867 0.5 L 89.1426769845867 3.5 L 96.1426769845867 0 L 89.1426769845867 -3.5 L 89.1426769845867 -0.5 L 83.77836974229335 -0.5 Z"/><text text-anchor="middle" pointer-events="none" font-size="8px" fill="#000000" x="57.07133849229335" y="3" font-family="sans-serif">SUBCAT_OF</text></g><g class="relationship" transform="translate(300.9743659797442 110.90073077283189) rotate(528.3225315244541)"><path class="outline" fill="#A5ABB6" stroke="none" d="M 25 0.5 L 55.866358948299194 0.5 L 55.866358948299194 -0.5 L 25 -0.5 Z M 109.2804214482992 0.5 L 140.1467803965984 0.5 L 140.1467803965984 3.5 L 147.1467803965984 0 L 140.1467803965984 -3.5 L 140.1467803965984 -0.5 L 109.2804214482992 -0.5 Z"/><text text-anchor="middle" pointer-events="none" font-size="8px" fill="#000000" x="82.5733901982992" y="3" transform="rotate(180 82.5733901982992 0)" font-family="sans-serif">SUBCAT_OF</text></g><g class="relationship" transform="translate(101.45809279693613 262.5656531631793) rotate(284.83061601613144)"><path class="outline" fill="#A5ABB6" stroke="none" d="M 25 0.5 L 30.216903788801922 0.5 L 30.216903788801922 -0.5 L 25 -0.5 Z M 83.63096628880191 0.5 L 88.84787007760384 0.5 L 88.84787007760384 3.5 L 95.84787007760384 0 L 88.84787007760384 -3.5 L 88.84787007760384 -0.5 L 83.63096628880191 -0.5 Z"/><text text-anchor="middle" pointer-events="none" font-size="8px" fill="#000000" x="56.92393503880192" y="3" font-family="sans-serif">SUBCAT_OF</text></g><g class="relationship" transform="translate(244.15511738913852 91.43045872972885) rotate(514.0820718318591)"><path class="outline" fill="#A5ABB6" stroke="none" d="M 25 0.5 L 31.92433627160097 0.5 L 31.92433627160097 -0.5 L 25 -0.5 Z M 85.33839877160096 0.5 L 92.26273504320194 0.5 L 92.26273504320194 3.5 L 99.26273504320194 0 L 92.26273504320194 -3.5 L 92.26273504320194 -0.5 L 85.33839877160096 -0.5 Z"/><text text-anchor="middle" pointer-events="none" font-size="8px" fill="#000000" x="58.63136752160097" y="3" transform="rotate(180 58.63136752160097 0)" font-family="sans-serif">SUBCAT_OF</text></g><g class="relationship" transform="translate(-40.42608323702229 133.99393056687373) rotate(363.88951493518096)"><path class="outline" fill="#A5ABB6" stroke="none" d="M 25 0.5 L 56.40079183300496 0.5 L 56.40079183300496 -0.5 L 25 -0.5 Z M 109.81485433300496 0.5 L 141.21564616600992 0.5 L 141.21564616600992 3.5 L 148.21564616600992 0 L 141.21564616600992 -3.5 L 141.21564616600992 -0.5 L 109.81485433300496 -0.5 Z"/><text text-anchor="middle" pointer-events="none" font-size="8px" fill="#000000" x="83.10782308300496" y="3" font-family="sans-serif">SUBCAT_OF</text></g><g class="relationship" transform="translate(-33.73402016975982 194.67078295509947) rotate(343.58919899641046)"><path class="outline" fill="#A5ABB6" stroke="none" d="M 25 0.5 L 56.38288711986232 0.5 L 56.38288711986232 -0.5 L 25 -0.5 Z M 109.79694961986232 0.5 L 141.17983673972464 0.5 L 141.17983673972464 3.5 L 148.17983673972464 0 L 141.17983673972464 -3.5 L 141.17983673972464 -0.5 L 109.79694961986232 -0.5 Z"/><text text-anchor="middle" pointer-events="none" font-size="8px" fill="#000000" x="83.08991836986232" y="3" font-family="sans-serif">SUBCAT_OF</text></g><g class="relationship" transform="translate(29.95340065033067 50.391847476034584) rotate(402.94836148376135)"><path class="outline" fill="#A5ABB6" stroke="none" d="M 25 0.5 L 39.7667840572943 0.5 L 39.7667840572943 -0.5 L 25 -0.5 Z M 93.1808465572943 0.5 L 107.9476306145886 0.5 L 107.9476306145886 3.5 L 114.9476306145886 0 L 107.9476306145886 -3.5 L 107.9476306145886 -0.5 L 93.1808465572943 -0.5 Z"/><text text-anchor="middle" pointer-events="none" font-size="8px" fill="#000000" x="66.4738153072943" y="3" font-family="sans-serif">SUBCAT_OF</text></g><g class="relationship" transform="translate(262.1345912070565 158.4863880402024) rotate(185.609299065911)"><path class="outline" fill="#A5ABB6" stroke="none" d="M 25 0.5 L 34.977096909422144 0.5 L 34.977096909422144 -0.5 L 25 -0.5 Z M 88.39115940942214 0.5 L 98.36825631884429 0.5 L 98.36825631884429 3.5 L 105.36825631884429 0 L 98.36825631884429 -3.5 L 98.36825631884429 -0.5 L 88.39115940942214 -0.5 Z"/><text text-anchor="middle" pointer-events="none" font-size="8px" fill="#000000" x="61.684128159422144" y="3" transform="rotate(180 61.684128159422144 0)" font-family="sans-serif">SUBCAT_OF</text></g><g class="relationship" transform="translate(25.915362919055895 200.9366018880307) rotate(332.5993787045619)"><path class="outline" fill="#A5ABB6" stroke="none" d="M 25 0.5 L 29.758043818247344 0.5 L 29.758043818247344 -0.5 L 25 -0.5 Z M 83.17210631824734 0.5 L 87.93015013649469 0.5 L 87.93015013649469 3.5 L 94.93015013649469 0 L 87.93015013649469 -3.5 L 87.93015013649469 -0.5 L 83.17210631824734 -0.5 Z"/><text text-anchor="middle" pointer-events="none" font-size="8px" fill="#000000" x="56.465075068247344" y="3" font-family="sans-serif">SUBCAT_OF</text></g></g><g class="layer nodes"><g class="node" transform="translate(132.39059686475835,145.74361802259645)"><circle class="outline" cx="0" cy="0" r="25" fill="#57C7E3" stroke="#23b3d7" stroke-width="2px"/><text text-anchor="middle" pointer-events="none" font-family="sans-serif" dy="1.5625" font-size="25" fill="#2A2C34"/><text text-anchor="middle" pointer-events="none" y="5" font-size="10px" fill="#2A2C34" font-family="sans-serif"> Machine…</text></g><g class="node" transform="translate(94.61652823737344,29.898445210909216)"><circle class="outline" cx="0" cy="0" r="25" fill="#D9C8AE" stroke="#c0a378" stroke-width="2px"/><text text-anchor="middle" pointer-events="none" font-family="sans-serif" dy="1.5625" font-size="25" fill="#2A2C34"/><text text-anchor="middle" pointer-events="none" font-family="sans-serif" dy="1.5625" font-size="25" fill="#2A2C34"/><text text-anchor="middle" pointer-events="none" font-family="sans-serif" dy="1.5625" font-size="25" fill="#2A2C34"/><text text-anchor="middle" pointer-events="none" y="-5" font-size="10px" fill="#2A2C34" font-family="sans-serif"> Applied</text><text text-anchor="middle" pointer-events="none" y="5" font-size="10px" fill="#2A2C34" font-family="sans-serif"> machine</text><text text-anchor="middle" pointer-events="none" y="15" font-size="10px" fill="#2A2C34" font-family="sans-serif"> learning</text></g><g class="node" transform="translate(194.85234598471564,237.99991359710415)"><circle class="outline" cx="0" cy="0" r="25" fill="#8DCC93" stroke="#5db665" stroke-width="2px"/><text text-anchor="middle" pointer-events="none" font-family="sans-serif" dy="1.5625" font-size="25" fill="#2A2C34"/><text text-anchor="middle" pointer-events="none" font-family="sans-serif" dy="1.5625" font-size="25" fill="#2A2C34"/><text text-anchor="middle" pointer-events="none" font-family="sans-serif" dy="1.5625" font-size="25" fill="#2A2C34"/><text text-anchor="middle" pointer-events="none" y="-5" font-size="10px" fill="#2A2C34" font-family="sans-serif"> Artificial</text><text text-anchor="middle" pointer-events="none" y="5" font-size="10px" fill="#2A2C34" font-family="sans-serif"> neural</text><text text-anchor="middle" pointer-events="none" y="15" font-size="10px" fill="#2A2C34" font-family="sans-serif"> netwo…</text></g><g class="node" transform="translate(54.74190777457825,300.1348877380172)"><circle class="outline" cx="0" cy="0" r="25" fill="#ECB5C9" stroke="#da7298" stroke-width="2px"/><text text-anchor="middle" pointer-events="none" font-family="sans-serif" dy="1.5625" font-size="25" fill="#2A2C34"/><text text-anchor="middle" pointer-events="none" font-family="sans-serif" dy="1.5625" font-size="25" fill="#2A2C34"/><text text-anchor="middle" pointer-events="none" y="0" font-size="10px" fill="#2A2C34" font-family="sans-serif"> Bayesian</text><text text-anchor="middle" pointer-events="none" y="10" font-size="10px" fill="#2A2C34" font-family="sans-serif"> networks</text></g><g class="node" transform="translate(292.03769830551335,210.4693328371971)"><circle class="outline" cx="0" cy="0" r="25" fill="#D9C8AE" stroke="#c0a378" stroke-width="2px"/><text text-anchor="middle" pointer-events="none" font-family="sans-serif" dy="1.5625" font-size="25" fill="#2A2C34"/><text text-anchor="middle" pointer-events="none" y="5" font-size="10px" fill="#2A2C34" font-family="sans-serif"> Classific…</text></g><g class="node" transform="translate(252.29740572295023,255.25624672432184)"><circle class="outline" cx="0" cy="0" r="25" fill="#D9C8AE" stroke="#c0a378" stroke-width="2px"/><text text-anchor="middle" pointer-events="none" font-family="sans-serif" dy="1.5625" font-size="25" fill="#2A2C34"/><text text-anchor="middle" pointer-events="none" font-family="sans-serif" dy="1.5625" font-size="25" fill="#2A2C34"/><text text-anchor="middle" pointer-events="none" y="0" font-size="10px" fill="#2A2C34" font-family="sans-serif"> Cluster</text><text text-anchor="middle" pointer-events="none" y="10" font-size="10px" fill="#2A2C34" font-family="sans-serif"> analysis</text></g><g class="node" transform="translate(7.728680259761216,258.0893350618072)"><circle class="outline" cx="0" cy="0" r="25" fill="#D9C8AE" stroke="#c0a378" stroke-width="2px"/><text text-anchor="middle" pointer-events="none" font-family="sans-serif" dy="1.5625" font-size="25" fill="#2A2C34"/><text text-anchor="middle" pointer-events="none" y="5" font-size="10px" fill="#2A2C34" font-family="sans-serif"> Comput…</text></g><g class="node" transform="translate(184.17550951479066,40.9052888270938)"><circle class="outline" cx="0" cy="0" r="25" fill="#D9C8AE" stroke="#c0a378" stroke-width="2px"/><text text-anchor="middle" pointer-events="none" font-family="sans-serif" dy="1.5625" font-size="25" fill="#2A2C34"/><text text-anchor="middle" pointer-events="none" font-family="sans-serif" dy="1.5625" font-size="25" fill="#2A2C34"/><text text-anchor="middle" pointer-events="none" y="0" font-size="10px" fill="#2A2C34" font-family="sans-serif"> Artificial</text><text text-anchor="middle" pointer-events="none" y="10" font-size="10px" fill="#2A2C34" font-family="sans-serif"> intellige…</text></g><g class="node" transform="translate(267.4793682716653,36.18110541654852)"><circle class="outline" cx="0" cy="0" r="25" fill="#D9C8AE" stroke="#c0a378" stroke-width="2px"/><text text-anchor="middle" pointer-events="none" font-family="sans-serif" dy="1.5625" font-size="25" fill="#2A2C34"/><text text-anchor="middle" pointer-events="none" font-family="sans-serif" dy="1.5625" font-size="25" fill="#2A2C34"/><text text-anchor="middle" pointer-events="none" y="0" font-size="10px" fill="#2A2C34" font-family="sans-serif"> Signal</text><text text-anchor="middle" pointer-events="none" y="10" font-size="10px" fill="#2A2C34" font-family="sans-serif"> process…</text></g><g class="node" transform="translate(158.7376102563892,-20.835777427457664)"><circle class="outline" cx="0" cy="0" r="25" fill="#D9C8AE" stroke="#c0a378" stroke-width="2px"/><text text-anchor="middle" pointer-events="none" font-family="sans-serif" dy="1.5625" font-size="25" fill="#2A2C34"/><text text-anchor="middle" pointer-events="none" font-family="sans-serif" dy="1.5625" font-size="25" fill="#2A2C34"/><text text-anchor="middle" pointer-events="none" font-family="sans-serif" dy="1.5625" font-size="25" fill="#2A2C34"/><text text-anchor="middle" pointer-events="none" font-family="sans-serif" dy="1.5625" font-size="25" fill="#2A2C34"/><text text-anchor="middle" pointer-events="none" y="-10" font-size="10px" fill="#2A2C34" font-family="sans-serif"> Data</text><text text-anchor="middle" pointer-events="none" y="0" font-size="10px" fill="#2A2C34" font-family="sans-serif"> mining</text><text text-anchor="middle" pointer-events="none" y="10" font-size="10px" fill="#2A2C34" font-family="sans-serif"> and</text><text text-anchor="middle" pointer-events="none" y="20" font-size="10px" fill="#2A2C34" font-family="sans-serif"> mac…</text></g><g class="node" transform="translate(99.43219167672876,-29.87814005943987)"><circle class="outline" cx="0" cy="0" r="25" fill="#D9C8AE" stroke="#c0a378" stroke-width="2px"/><text text-anchor="middle" pointer-events="none" font-family="sans-serif" dy="1.5625" font-size="25" fill="#2A2C34"/><text text-anchor="middle" pointer-events="none" font-family="sans-serif" dy="1.5625" font-size="25" fill="#2A2C34"/><text text-anchor="middle" pointer-events="none" y="0" font-size="10px" fill="#2A2C34" font-family="sans-serif"> Datasets</text><text text-anchor="middle" pointer-events="none" y="10" font-size="10px" fill="#2A2C34" font-family="sans-serif"> in mach…</text></g><g class="node" transform="translate(135.3366412055577,312.082903998447)"><circle class="outline" cx="0" cy="0" r="25" fill="#8DCC93" stroke="#5db665" stroke-width="2px"/><text text-anchor="middle" pointer-events="none" font-family="sans-serif" dy="1.5625" font-size="25" fill="#2A2C34"/><text text-anchor="middle" pointer-events="none" font-family="sans-serif" dy="1.5625" font-size="25" fill="#2A2C34"/><text text-anchor="middle" pointer-events="none" y="0" font-size="10px" fill="#2A2C34" font-family="sans-serif"> Deep</text><text text-anchor="middle" pointer-events="none" y="10" font-size="10px" fill="#2A2C34" font-family="sans-serif"> learning</text></g><g class="node" transform="translate(220.8502489371078,-6.557587169400862)"><circle class="outline" cx="0" cy="0" r="25" fill="#D9C8AE" stroke="#c0a378" stroke-width="2px"/><text text-anchor="middle" pointer-events="none" font-family="sans-serif" dy="1.5625" font-size="25" fill="#2A2C34"/><text text-anchor="middle" pointer-events="none" y="5" font-size="10px" fill="#2A2C34" font-family="sans-serif"> Dimensi…</text></g><g class="node" transform="translate(208.6301400430723,296.35310326606566)"><circle class="outline" cx="0" cy="0" r="25" fill="#8DCC93" stroke="#5db665" stroke-width="2px"/><text text-anchor="middle" pointer-events="none" font-family="sans-serif" dy="1.5625" font-size="25" fill="#2A2C34"/><text text-anchor="middle" pointer-events="none" y="5" font-size="10px" fill="#2A2C34" font-family="sans-serif"> Ensemble</text></g><g class="node" transform="translate(-29.924206538319027,61.66131802416491)"><circle class="outline" cx="0" cy="0" r="25" fill="#D9C8AE" stroke="#c0a378" stroke-width="2px"/><text text-anchor="middle" pointer-events="none" font-family="sans-serif" dy="1.5625" font-size="25" fill="#2A2C34"/><text text-anchor="middle" pointer-events="none" y="5" font-size="10px" fill="#2A2C34" font-family="sans-serif"> Evolutio…</text></g><g class="node" transform="translate(30.964570122464735,-9.58492553863741)"><circle class="outline" cx="0" cy="0" r="25" fill="#8DCC93" stroke="#5db665" stroke-width="2px"/><text text-anchor="middle" pointer-events="none" font-family="sans-serif" dy="1.5625" font-size="25" fill="#2A2C34"/><text text-anchor="middle" pointer-events="none" font-family="sans-serif" dy="1.5625" font-size="25" fill="#2A2C34"/><text text-anchor="middle" pointer-events="none" y="0" font-size="10px" fill="#2A2C34" font-family="sans-serif"> Genetic</text><text text-anchor="middle" pointer-events="none" y="10" font-size="10px" fill="#2A2C34" font-family="sans-serif"> progra…</text></g><g class="node" transform="translate(15.754393357263476,113.00916799895691)"><circle class="outline" cx="0" cy="0" r="25" fill="#D9C8AE" stroke="#c0a378" stroke-width="2px"/><text text-anchor="middle" pointer-events="none" font-family="sans-serif" dy="1.5625" font-size="25" fill="#2A2C34"/><text text-anchor="middle" pointer-events="none" font-family="sans-serif" dy="1.5625" font-size="25" fill="#2A2C34"/><text text-anchor="middle" pointer-events="none" y="0" font-size="10px" fill="#2A2C34" font-family="sans-serif"> Inductive</text><text text-anchor="middle" pointer-events="none" y="10" font-size="10px" fill="#2A2C34" font-family="sans-serif"> logic pr…</text></g><g class="node" transform="translate(300.9743659797442,110.90073077283189)"><circle class="outline" cx="0" cy="0" r="25" fill="#D9C8AE" stroke="#c0a378" stroke-width="2px"/><text text-anchor="middle" pointer-events="none" font-family="sans-serif" dy="1.5625" font-size="25" fill="#2A2C34"/><text text-anchor="middle" pointer-events="none" font-family="sans-serif" dy="1.5625" font-size="25" fill="#2A2C34"/><text text-anchor="middle" pointer-events="none" font-family="sans-serif" dy="1.5625" font-size="25" fill="#2A2C34"/><text text-anchor="middle" pointer-events="none" y="-5" font-size="10px" fill="#2A2C34" font-family="sans-serif"> Kernel</text><text text-anchor="middle" pointer-events="none" y="5" font-size="10px" fill="#2A2C34" font-family="sans-serif"> methods</text><text text-anchor="middle" pointer-events="none" y="15" font-size="10px" fill="#2A2C34" font-family="sans-serif"> for ma…</text></g><g class="node" transform="translate(101.45809279693613,262.5656531631793)"><circle class="outline" cx="0" cy="0" r="25" fill="#D9C8AE" stroke="#c0a378" stroke-width="2px"/><text text-anchor="middle" pointer-events="none" font-family="sans-serif" dy="1.5625" font-size="25" fill="#2A2C34"/><text text-anchor="middle" pointer-events="none" font-family="sans-serif" dy="1.5625" font-size="25" fill="#2A2C34"/><text text-anchor="middle" pointer-events="none" font-family="sans-serif" dy="1.5625" font-size="25" fill="#2A2C34"/><text text-anchor="middle" pointer-events="none" y="-5" font-size="10px" fill="#2A2C34" font-family="sans-serif"> Latent</text><text text-anchor="middle" pointer-events="none" y="5" font-size="10px" fill="#2A2C34" font-family="sans-serif"> variable</text><text text-anchor="middle" pointer-events="none" y="15" font-size="10px" fill="#2A2C34" font-family="sans-serif"> models</text></g><g class="node" transform="translate(244.15511738913852,91.43045872972885)"><circle class="outline" cx="0" cy="0" r="25" fill="#D9C8AE" stroke="#c0a378" stroke-width="2px"/><text text-anchor="middle" pointer-events="none" font-family="sans-serif" dy="1.5625" font-size="25" fill="#2A2C34"/><text text-anchor="middle" pointer-events="none" font-family="sans-serif" dy="1.5625" font-size="25" fill="#2A2C34"/><text text-anchor="middle" pointer-events="none" y="0" font-size="10px" fill="#2A2C34" font-family="sans-serif"> Learning</text><text text-anchor="middle" pointer-events="none" y="10" font-size="10px" fill="#2A2C34" font-family="sans-serif"> in comp…</text></g><g class="node" transform="translate(-40.42608323702229,133.99393056687373)"><circle class="outline" cx="0" cy="0" r="25" fill="#D9C8AE" stroke="#c0a378" stroke-width="2px"/><text text-anchor="middle" pointer-events="none" font-family="sans-serif" dy="1.5625" font-size="25" fill="#2A2C34"/><text text-anchor="middle" pointer-events="none" y="5" font-size="10px" fill="#2A2C34" font-family="sans-serif"> Log-linear</text></g><g class="node" transform="translate(-33.73402016975982,194.67078295509947)"><circle class="outline" cx="0" cy="0" r="25" fill="#D9C8AE" stroke="#c0a378" stroke-width="2px"/><text text-anchor="middle" pointer-events="none" font-family="sans-serif" dy="1.5625" font-size="25" fill="#2A2C34"/><text text-anchor="middle" pointer-events="none" font-family="sans-serif" dy="1.5625" font-size="25" fill="#2A2C34"/><text text-anchor="middle" pointer-events="none" y="0" font-size="10px" fill="#2A2C34" font-family="sans-serif"> Loss</text><text text-anchor="middle" pointer-events="none" y="10" font-size="10px" fill="#2A2C34" font-family="sans-serif"> functions</text></g><g class="node" transform="translate(29.95340065033067,50.391847476034584)"><circle class="outline" cx="0" cy="0" r="25" fill="#D9C8AE" stroke="#c0a378" stroke-width="2px"/><text text-anchor="middle" pointer-events="none" font-family="sans-serif" dy="1.5625" font-size="25" fill="#2A2C34"/><text text-anchor="middle" pointer-events="none" font-family="sans-serif" dy="1.5625" font-size="25" fill="#2A2C34"/><text text-anchor="middle" pointer-events="none" y="0" font-size="10px" fill="#2A2C34" font-family="sans-serif"> Machine</text><text text-anchor="middle" pointer-events="none" y="10" font-size="10px" fill="#2A2C34" font-family="sans-serif"> learning</text></g><g class="node" transform="translate(262.1345912070565,158.4863880402024)"><circle class="outline" cx="0" cy="0" r="25" fill="#D9C8AE" stroke="#c0a378" stroke-width="2px"/><text text-anchor="middle" pointer-events="none" font-family="sans-serif" dy="1.5625" font-size="25" fill="#2A2C34"/><text text-anchor="middle" pointer-events="none" font-family="sans-serif" dy="1.5625" font-size="25" fill="#2A2C34"/><text text-anchor="middle" pointer-events="none" y="0" font-size="10px" fill="#2A2C34" font-family="sans-serif"> Machine</text><text text-anchor="middle" pointer-events="none" y="10" font-size="10px" fill="#2A2C34" font-family="sans-serif"> learning</text></g><g class="node" transform="translate(25.915362919055895,200.9366018880307)"><circle class="outline" cx="0" cy="0" r="25" fill="#D9C8AE" stroke="#c0a378" stroke-width="2px"/><text text-anchor="middle" pointer-events="none" font-family="sans-serif" dy="1.5625" font-size="25" fill="#2A2C34"/><text text-anchor="middle" pointer-events="none" font-family="sans-serif" dy="1.5625" font-size="25" fill="#2A2C34"/><text text-anchor="middle" pointer-events="none" y="0" font-size="10px" fill="#2A2C34" font-family="sans-serif"> Markov</text><text text-anchor="middle" pointer-events="none" y="10" font-size="10px" fill="#2A2C34" font-family="sans-serif"> models</text></g></g></svg>